<?xml version="1.0" standalone="no"?>
<svg xmlns:xlink="http://www.w3.org/1999/xlink" id="wave" style="transform:rotate(0deg); transition: 0.3s" viewBox="0 0 1440 150" version="1.1" xmlns="http://www.w3.org/2000/svg"><defs><linearGradient id="sw-gradient-0" x1="0" x2="0" y1="1" y2="0"><stop stop-color="rgba(255, 255, 255, 1)" offset="0%"/><stop stop-color="rgba(241, 246, 245, 1)" offset="100%"/></linearGradient></defs><path style="transform:translate(0, 0px); opacity:1" fill="url(#sw-gradient-0)" d="M0,45L12,57.5C24,70,48,95,72,100C96,105,120,90,144,85C168,80,192,85,216,77.5C240,70,264,50,288,40C312,30,336,30,360,32.5C384,35,408,40,432,42.5C456,45,480,45,504,57.5C528,70,552,95,576,90C600,85,624,50,648,40C672,30,696,45,720,50C744,55,768,50,792,40C816,30,840,15,864,10C888,5,912,10,936,30C960,50,984,85,1008,100C1032,115,1056,110,1080,102.5C1104,95,1128,85,1152,85C1176,85,1200,95,1224,90C1248,85,1272,65,1296,62.5C1320,60,1344,75,1368,82.5C1392,90,1416,90,1440,82.5C1464,75,1488,60,1512,57.5C1536,55,1560,65,1584,67.5C1608,70,1632,65,1656,70C1680,75,1704,90,1716,97.5L1728,105L1728,150L1716,150C1704,150,1680,150,1656,150C1632,150,1608,150,1584,150C1560,150,1536,150,1512,150C1488,150,1464,150,1440,150C1416,150,1392,150,1368,150C1344,150,1320,150,1296,150C1272,150,1248,150,1224,150C1200,150,1176,150,1152,150C1128,150,1104,150,1080,150C1056,150,1032,150,1008,150C984,150,960,150,936,150C912,150,888,150,864,150C840,150,816,150,792,150C768,150,744,150,720,150C696,150,672,150,648,150C624,150,600,150,576,150C552,150,528,150,504,150C480,150,456,150,432,150C408,150,384,150,360,150C336,150,312,150,288,150C264,150,240,150,216,150C192,150,168,150,144,150C120,150,96,150,72,150C48,150,24,150,12,150L0,150Z"/></svg>